HIERARCHY
ROOT hip
{
  OFFSET 5.70873 43.8894 -1.52928
  CHANNELS 6 Xposition Yposition Zposition Zrotation Xrotation Yrotation
  JOINT abdomen
  {
    OFFSET 0 5.99393 0.287273
    CHANNELS 6 Xposition Yposition Zposition Zrotation Xrotation Yrotation
    JOINT chest
    {
      OFFSET 0 6.65865 -0.856112
      CHANNELS 6 Xposition Yposition Zposition Zrotation Xrotation Yrotation
      JOINT neck
      {
        OFFSET 0 8.65624 -1.42685
        CHANNELS 6 Xposition Yposition Zposition Zrotation Xrotation Yrotation
        JOINT head
        {
          OFFSET 0 3.80999 -0.190247
          CHANNELS 6 Xposition Yposition Zposition Zrotation Xrotation Yrotation
          End Site
          {
            OFFSET 0 0 0
          }
        }
      }
      JOINT rCollar
      {
        OFFSET -1.4963 7.5744 -1.52136
        CHANNELS 6 Xposition Yposition Zposition Zrotation Xrotation Yrotation
        JOINT rShldr
        {
          OFFSET -5.47506 -0.905672 0.485692
          CHANNELS 6 Xposition Yposition Zposition Zrotation Xrotation Yrotation
          JOINT rForeArm
          {
            OFFSET -11.3069 -0.201091 0.618544
            CHANNELS 6 Xposition Yposition Zposition Zrotation Xrotation Yrotation
            JOINT rHand
            {
              OFFSET -9.61414 -0.254739 3.48553
              CHANNELS 6 Xposition Yposition Zposition Zrotation Xrotation Yrotation
              JOINT rThumb1
              {
                OFFSET 0.176263 -0.07068 1.26622
                CHANNELS 6 Xposition Yposition Zposition Zrotation Xrotation Yrotation
                JOINT rThumb2
                {
                  OFFSET -1.04683 -0.546484 1.82182
                  CHANNELS 6 Xposition Yposition Zposition Zrotation Xrotation Yrotation
                  JOINT rThumb3
                  {
                    OFFSET -0.993472 -0.621916 0.655506
                    CHANNELS 6 Xposition Yposition Zposition Zrotation Xrotation Yrotation
                    End Site
                    {
                      OFFSET -0.996134 -0.66263 0.644615
                    }
                  }
                }
              }
              JOINT rIndex1
              {
                OFFSET -2.64253 0.566363 2.4162
                CHANNELS 6 Xposition Yposition Zposition Zrotation Xrotation Yrotation
                JOINT rIndex2
                {
                  OFFSET -1.39394 -0.635138 0.899356
                  CHANNELS 6 Xposition Yposition Zposition Zrotation Xrotation Yrotation
                  JOINT rIndex3
                  {
                    OFFSET -0.622395 -0.856016 0.402182
                    CHANNELS 6 Xposition Yposition Zposition Zrotation Xrotation Yrotation
                    End Site
                    {
                      OFFSET -0.472476 -0.801802 0.34216
                    }
                  }
                }
              }
              JOINT rMid1
              {
                OFFSET -3.20814 0.514427 1.52547
                CHANNELS 6 Xposition Yposition Zposition Zrotation Xrotation Yrotation
                JOINT rMid2
                {
                  OFFSET -1.56545 -0.497974 0.68919
                  CHANNELS 6 Xposition Yposition Zposition Zrotation Xrotation Yrotation
                  JOINT rMid3
                  {
                    OFFSET -0.679943 -1.17582 0.444246
                    CHANNELS 6 Xposition Yposition Zposition Zrotation Xrotation Yrotation
                    End Site
                    {
                      OFFSET -0.343874 -0.941341 0.267611
                    }
                  }
                }
              }
              JOINT rRing1
              {
                OFFSET -3.47877 0.200518 0.597719
                CHANNELS 6 Xposition Yposition Zposition Zrotation Xrotation Yrotation
                JOINT rRing2
                {
                  OFFSET -1.28208 -0.53155 0.44672
                  CHANNELS 6 Xposition Yposition Zposition Zrotation Xrotation Yrotation
                  JOINT rRing3
                  {
                    OFFSET -0.710288 -0.970167 0.4032
                    CHANNELS 6 Xposition Yposition Zposition Zrotation Xrotation Yrotation
                    End Site
                    {
                      OFFSET -0.403228 -0.950952 0.378354
                    }
                  }
                }
              }
              JOINT rPinky1
              {
                OFFSET -3.42483 -0.278904 -0.240415
                CHANNELS 6 Xposition Yposition Zposition Zrotation Xrotation Yrotation
                JOINT rPinky2
                {
                  OFFSET -1.05787 -0.635999 0.156459
                  CHANNELS 6 Xposition Yposition Zposition Zrotation Xrotation Yrotation
                  JOINT rPinky3
                  {
                    OFFSET -0.42815 -0.754232 0.287187
                    CHANNELS 6 Xposition Yposition Zposition Zrotation Xrotation Yrotation
                    End Site
                    {
                      OFFSET -0.235717 -0.725605 0.279416
                    }
                  }
                }
              }
            }
          }
        }
      }
      JOINT lCollar
      {
        OFFSET 1.4963 7.5744 -1.52136
        CHANNELS 6 Xposition Yposition Zposition Zrotation Xrotation Yrotation
        JOINT lShldr
        {
          OFFSET 5.47506 -0.905672 0.485692
          CHANNELS 6 Xposition Yposition Zposition Zrotation Xrotation Yrotation
          JOINT lForeArm
          {
            OFFSET 11.3069 -0.201091 0.618544
            CHANNELS 6 Xposition Yposition Zposition Zrotation Xrotation Yrotation
            JOINT lHand
            {
              OFFSET 9.61414 -0.254739 3.48553
              CHANNELS 6 Xposition Yposition Zposition Zrotation Xrotation Yrotation
              JOINT lThumb1
              {
                OFFSET -0.176263 -0.07068 1.26622
                CHANNELS 6 Xposition Yposition Zposition Zrotation Xrotation Yrotation
                JOINT lThumb2
                {
                  OFFSET 1.04683 -0.546484 1.82182
                  CHANNELS 6 Xposition Yposition Zposition Zrotation Xrotation Yrotation
                  JOINT lThumb3
                  {
                    OFFSET 0.993472 -0.621916 0.655506
                    CHANNELS 6 Xposition Yposition Zposition Zrotation Xrotation Yrotation
                    End Site
                    {
                      OFFSET 0.996134 -0.66263 0.644615
                    }
                  }
                }
              }
              JOINT lIndex1
              {
                OFFSET 2.64253 0.566363 2.4162
                CHANNELS 6 Xposition Yposition Zposition Zrotation Xrotation Yrotation
                JOINT lIndex2
                {
                  OFFSET 1.39394 -0.635138 0.899356
                  CHANNELS 6 Xposition Yposition Zposition Zrotation Xrotation Yrotation
                  JOINT lIndex3
                  {
                    OFFSET 0.622395 -0.856016 0.402182
                    CHANNELS 6 Xposition Yposition Zposition Zrotation Xrotation Yrotation
                    End Site
                    {
                      OFFSET 0.472476 -0.801802 0.34216
                    }
                  }
                }
              }
              JOINT lMid1
              {
                OFFSET 3.20814 0.514427 1.52547
                CHANNELS 6 Xposition Yposition Zposition Zrotation Xrotation Yrotation
                JOINT lMid2
                {
                  OFFSET 1.56545 -0.497974 0.68919
                  CHANNELS 6 Xposition Yposition Zposition Zrotation Xrotation Yrotation
                  JOINT lMid3
                  {
                    OFFSET 0.679943 -1.17582 0.444246
                    CHANNELS 6 Xposition Yposition Zposition Zrotation Xrotation Yrotation
                    End Site
                    {
                      OFFSET 0.343874 -0.941341 0.267611
                    }
                  }
                }
              }
              JOINT lRing1
              {
                OFFSET 3.47877 0.200518 0.597719
                CHANNELS 6 Xposition Yposition Zposition Zrotation Xrotation Yrotation
                JOINT lRing2
                {
                  OFFSET 1.28208 -0.53155 0.44672
                  CHANNELS 6 Xposition Yposition Zposition Zrotation Xrotation Yrotation
                  JOINT lRing3
                  {
                    OFFSET 0.710288 -0.970167 0.4032
                    CHANNELS 6 Xposition Yposition Zposition Zrotation Xrotation Yrotation
                    End Site
                    {
                      OFFSET 0.403228 -0.950952 0.378354
                    }
                  }
                }
              }
              JOINT lPinky1
              {
                OFFSET 3.42483 -0.278904 -0.240415
                CHANNELS 6 Xposition Yposition Zposition Zrotation Xrotation Yrotation
                JOINT lPinky2
                {
                  OFFSET 1.05787 -0.635999 0.156459
                  CHANNELS 6 Xposition Yposition Zposition Zrotation Xrotation Yrotation
                  JOINT lPinky3
                  {
                    OFFSET 0.42815 -0.754232 0.287187
                    CHANNELS 6 Xposition Yposition Zposition Zrotation Xrotation Yrotation
                    End Site
                    {
                      OFFSET 0.235717 -0.725605 0.279416
                    }
                  }
                }
              }
            }
          }
        }
      }
    }
  }
  JOINT rThigh
  {
    OFFSET -4.17848 -1.02486 0.046356
    CHANNELS 6 Xposition Yposition Zposition Zrotation Xrotation Yrotation
    JOINT rShin
    {
      OFFSET 1.27155 -17.465 -0.237699
      CHANNELS 6 Xposition Yposition Zposition Zrotation Xrotation Yrotation
      JOINT rFoot
      {
        OFFSET 0.529163 -17.3815 -1.19582
        CHANNELS 6 Xposition Yposition Zposition Zrotation Xrotation Yrotation
        JOINT rToe
        {
          OFFSET -0.711591 -4.4863 4.0596
          CHANNELS 6 Xposition Yposition Zposition Zrotation Xrotation Yrotation
          End Site
          {
            OFFSET -0.869915 -1.10655 1.99006
          }
        }
      }
    }
  }
  JOINT lThigh
  {
    OFFSET 4.17848 -1.02486 0.046356
    CHANNELS 6 Xposition Yposition Zposition Zrotation Xrotation Yrotation
    JOINT lShin
    {
      OFFSET -1.27155 -17.465 -0.237699
      CHANNELS 6 Xposition Yposition Zposition Zrotation Xrotation Yrotation
      JOINT lFoot
      {
        OFFSET -0.529163 -17.3815 -1.19582
        CHANNELS 6 Xposition Yposition Zposition Zrotation Xrotation Yrotation
        JOINT lToe
        {
          OFFSET 0.711591 -4.4863 4.0596
          CHANNELS 6 Xposition Yposition Zposition Zrotation Xrotation Yrotation
          End Site
          {
            OFFSET 0.869915 -1.10655 1.99006
          }
        }
      }
    }
  }
}
MOTION
Frames:	4
Frame Time:	0.0333333
-12.9874 6.69435 26.5183 10.1807 -64.7109 21.1565 0 5.99393 0.287273 -0.17298 -11.735 0.565905 3.55271e-015 6.65865 -0.856112 -0.232128 -23.4711 1.13161 0 8.65624 -1.42685 0.374497 -0.655574 -5.68351 -3.55271e-015 3.80999 -0.190247 17.7696 4.87546 -1.5682 -1.4963 7.5744 -1.52136 -21.1026 -0.0894733 -2.50509 -5.47506 -0.905672 0.485692 58.1463 -3.18408 79.5738 -11.3069 -0.201091 0.618544 -2.94219 -5.32257 35.0513 -9.61414 -0.254739 3.48553 5.19665 -10.0736 37.4833 0.176263 -0.07068 1.26622 -19.5564 47.1206 31.2749 -1.04683 -0.546484 1.82182 4.64751 -3.91596 12.6941 -0.993472 -0.621916 0.655506 -6.69358 11.6018 -27.2269 -2.64253 0.566363 2.4162 22.6624 6.19457 -14.3658 -1.39394 -0.635138 0.899356 39.7253 7.68606 -8.77029 -0.622395 -0.856016 0.402182 40.5678 7.77379 -9.00294 -3.20814 0.514427 1.52547 6.20245 0.646557 -2.10292 -1.56545 -0.497974 0.68919 51.7974 10.4666 -12.7907 -0.679943 -1.17582 0.444246 14.547 4.1312 -2.59428 -3.47877 0.200518 0.597719 13.4234 -1.35173 -5.37481 -1.28208 -0.53155 0.44672 20.461 6.18709 -4.84312 -0.710288 -0.970167 0.4032 22.0752 6.58732 -5.30764 -3.42483 -0.278904 -0.240415 -11.5768 -9.15204 -6.30981 -1.05787 -0.635999 0.156459 21.1476 6.99532 -4.85964 -0.42815 -0.754232 0.287187 10.7638 3.81199 -2.17124 1.4963 7.5744 -1.52136 5.16432 -1.47313 -15.364 5.47506 -0.905672 0.485692 -58.7048 -1.93151 -59.1761 11.3069 -0.201091 0.618544 -22.0883 -27.7884 -79.6202 9.61414 -0.254739 3.48553 -7.21661 22.1461 -28.6564 -0.176263 -0.07068 1.26622 24.2781 38.4816 -35.502 1.04683 -0.546484 1.82182 -6.53176 -1.24815 -11.4633 0.993472 -0.621916 0.655506 6.45121 2.66727 11.8095 2.64253 0.566363 2.4162 -5.1898 4.48318 12.5249 1.39394 -0.635138 0.899356 -36.9453 6.74326 17.0314 0.622395 -0.856016 0.402182 -38.0064 6.76571 17.5561 3.20814 0.514427 1.52547 -1.48522 -0.683608 1.67105 1.56545 -0.497974 0.68919 -44.4871 8.3571 21.4002 0.679943 -1.17582 0.444246 -9.36073 3.19835 3.99261 3.47877 0.200518 0.597719 -8.07663 -2.63759 5.99021 1.28208 -0.53155 0.44672 -14.7811 5.15022 7.29475 0.710288 -0.970167 0.4032 -16.2799 5.55275 8.08533 3.42483 -0.278904 -0.240415 11.7678 -11.303 2.60131 1.05787 -0.635999 0.156459 -18.8961 6.82257 9.38288 0.42815 -0.754232 0.287187 -9.18837 3.761 4.34946 -4.17848 -1.02486 0.046356 -30.9933 -17.6532 -9.06911 1.27155 -17.465 -0.237699 0.681847 0.123045 4.71618 0.529163 -17.3815 -1.19582 14.5084 21.3986 -2.63593 -0.711591 -4.4863 4.0596 1.29314 9.22633 -0.352772 4.17848 -1.02486 0.046356 41.8125 -40.2003 19.7409 -1.27155 -17.465 -0.237699 0.649209 24.513 -1.77363 -0.529163 -17.3815 -1.19582 -9.60473 15.6739 -15.4501 0.711591 -4.4863 4.0596 0.188384 -1.52668 0.0793168 
-12.968 6.67466 26.5289 9.79384 -65.1717 20.7762 0 5.99393 0.287273 -0.0256699 -11.8092 0.605195 -3.55271e-015 6.65865 -0.856112 0.0820495 -23.6181 1.246 -3.55271e-015 8.65624 -1.42685 0.700875 -0.313483 -5.2937 0 3.80999 -0.190247 18.2697 5.34024 -1.31838 -1.4963 7.5744 -1.52136 -21.0547 -0.120135 -2.24445 -5.47506 -0.905672 0.485692 58.2536 -2.94768 79.5517 -11.3069 -0.201091 0.618544 -3.61396 -4.80754 33.7347 -9.61414 -0.254739 3.48553 5.64184 -10.4803 38.258 0.176263 -0.07068 1.26622 -19.5563 47.1206 31.2748 -1.04683 -0.546484 1.82182 4.64758 -3.916 12.6943 -0.993472 -0.621916 0.655506 -6.69359 11.6018 -27.2269 -2.64253 0.566363 2.4162 22.6624 6.19456 -14.3658 -1.39394 -0.635138 0.899356 39.7253 7.68606 -8.77029 -0.622395 -0.856016 0.402182 40.5678 7.77381 -9.00295 -3.20814 0.514427 1.52547 6.20245 0.646569 -2.10291 -1.56545 -0.497974 0.68919 51.7974 10.4666 -12.7907 -0.679943 -1.17582 0.444246 14.547 4.13119 -2.59427 -3.47877 0.200518 0.597719 13.4234 -1.35174 -5.37481 -1.28208 -0.53155 0.44672 20.461 6.18709 -4.84311 -0.710288 -0.970167 0.4032 22.0752 6.58733 -5.30764 -3.42483 -0.278904 -0.240415 -11.5768 -9.15205 -6.3098 -1.05787 -0.635999 0.156459 21.1476 6.99532 -4.85965 -0.42815 -0.754232 0.287187 10.7638 3.81198 -2.17124 1.4963 7.5744 -1.52136 5.23948 -1.47577 -15.4174 5.47506 -0.905672 0.485692 -58.5068 -2.02393 -59.113 11.3069 -0.201091 0.618544 -22.1032 -27.6126 -79.61 9.61414 -0.254739 3.48553 -6.15287 22.3612 -29.1632 -0.176263 -0.07068 1.26622 23.6468 37.8033 -34.9938 1.04683 -0.546484 1.82182 -6.42001 -1.23804 -11.2692 0.993472 -0.621916 0.655506 6.29082 2.58137 11.5063 2.64253 0.566363 2.4162 -4.86857 4.30118 12.0976 1.39394 -0.635138 0.899356 -36.0794 6.71775 16.6037 0.622395 -0.856016 0.402182 -37.0964 6.74699 17.1063 3.20814 0.514427 1.52547 -1.22607 -0.764384 1.54647 1.56545 -0.497974 0.68919 -43.4599 8.36254 20.8685 0.679943 -1.17582 0.444246 -8.95813 3.07603 3.81246 3.47877 0.200518 0.597719 -7.71955 -2.67119 5.7728 1.28208 -0.53155 0.44672 -14.2848 5.01213 7.03474 0.710288 -0.970167 0.4032 -15.7562 5.41478 7.80825 3.42483 -0.278904 -0.240415 11.9072 -11.1523 2.62697 1.05787 -0.635999 0.156459 -18.3237 6.66846 9.07607 0.42815 -0.754232 0.287187 -8.79496 3.61698 4.15402 -4.17848 -1.02486 0.046356 -30.6613 -17.7066 -8.71427 1.27155 -17.465 -0.237699 0.682002 0.0190784 4.70756 0.529163 -17.3815 -1.19582 14.4916 21.4486 -2.60798 -0.711591 -4.4863 4.0596 1.28258 9.1535 -0.349122 4.17848 -1.02486 0.046356 41.7354 -40.0924 20.1078 -1.27155 -17.465 -0.237699 0.654077 24.62 -1.78974 -0.529163 -17.3815 -1.19582 -9.52153 15.6608 -15.4527 0.711591 -4.4863 4.0596 0.184328 -1.49395 0.0775655 
-12.9355 6.65782 26.5659 9.38216 -65.6113 20.3525 0 5.99393 0.287273 0.124309 -11.8865 0.653295 0 6.65865 -0.856112 0.404261 -23.7706 1.37981 0 8.65624 -1.42685 0.835722 0.0709498 -4.8972 0 3.80999 -0.190247 18.9617 5.78557 -1.07871 -1.4963 7.5744 -1.52136 -20.9227 -0.199243 -1.55342 -5.47506 -0.905672 0.485692 58.4026 -2.89739 78.9909 -11.3069 -0.201091 0.618544 -3.82419 -5.01945 33.2021 -9.61414 -0.254739 3.48553 5.82914 -10.002 38.4691 0.176263 -0.07068 1.26622 -19.5564 47.1207 31.2749 -1.04683 -0.546484 1.82182 4.64765 -3.91605 12.6945 -0.993472 -0.621916 0.655506 -6.69358 11.6018 -27.2269 -2.64253 0.566363 2.4162 22.6624 6.19459 -14.3658 -1.39394 -0.635138 0.899356 39.7253 7.68606 -8.77028 -0.622395 -0.856016 0.402182 40.5678 7.77381 -9.00294 -3.20814 0.514427 1.52547 6.20244 0.646556 -2.10292 -1.56545 -0.497974 0.68919 51.7974 10.4666 -12.7907 -0.679943 -1.17582 0.444246 14.547 4.13119 -2.59428 -3.47877 0.200518 0.597719 13.4234 -1.35175 -5.37482 -1.28208 -0.53155 0.44672 20.461 6.18711 -4.84312 -0.710288 -0.970167 0.4032 22.0752 6.58732 -5.30764 -3.42483 -0.278904 -0.240415 -11.5768 -9.15203 -6.3098 -1.05787 -0.635999 0.156459 21.1476 6.99533 -4.85965 -0.42815 -0.754232 0.287187 10.7638 3.81199 -2.17125 1.4963 7.5744 -1.52136 5.44028 -1.48236 -15.5523 5.47506 -0.905672 0.485692 -57.9665 -2.29072 -58.9215 11.3069 -0.201091 0.618544 -22.1586 -27.1312 -79.5979 9.61414 -0.254739 3.48553 -3.45488 22.7607 -30.5175 -0.176263 -0.07068 1.26622 21.9126 35.8951 -33.6654 1.04683 -0.546484 1.82182 -6.10914 -1.2079 -10.7291 0.993472 -0.621916 0.655506 5.84205 2.34673 10.6609 2.64253 0.566363 2.4162 -3.97945 3.7932 10.9106 1.39394 -0.635138 0.899356 -33.6709 6.61296 15.4161 0.622395 -0.856016 0.402182 -34.5645 6.65758 15.8565 3.20814 0.514427 1.52547 -0.505083 -0.991444 1.20178 1.56545 -0.497974 0.68919 -40.6009 8.32799 19.3889 0.679943 -1.17582 0.444246 -7.83964 2.72888 3.31565 3.47877 0.200518 0.597719 -6.72446 -2.7707 5.17115 1.28208 -0.53155 0.44672 -12.9073 4.61605 6.31765 0.710288 -0.970167 0.4032 -14.3026 5.00792 7.04147 3.42483 -0.278904 -0.240415 12.2937 -10.7317 2.69741 1.05787 -0.635999 0.156459 -16.7356 6.22355 8.2308 0.42815 -0.754232 0.287187 -7.69622 3.19742 3.60993 -4.17848 -1.02486 0.046356 -29.7704 -17.8518 -7.76939 1.27155 -17.465 -0.237699 0.687365 -0.226867 4.68263 0.529163 -17.3815 -1.19582 14.4445 21.5812 -2.52845 -0.711591 -4.4863 4.0596 1.25507 8.96337 -0.339677 4.17848 -1.02486 0.046356 41.5221 -39.8241 21.0649 -1.27155 -17.465 -0.237699 0.669127 24.9271 -1.83685 -0.529163 -17.3815 -1.19582 -9.30611 15.63 -15.4501 0.711591 -4.4863 4.0596 0.173383 -1.40563 0.0728315 
-12.8907 6.64134 26.6203 8.93001 -66.041 19.8821 0 5.99393 0.287273 0.278646 -11.9634 0.703797 0 6.65865 -0.856112 0.736433 -23.9221 1.52018 3.55271e-015 8.65624 -1.42685 0.842674 0.509321 -4.48638 -3.55271e-015 3.80999 -0.190247 19.7933 6.18201 -0.846434 -1.4963 7.5744 -1.52136 -20.7241 -0.306281 -0.567839 -5.47506 -0.905672 0.485692 58.562 -2.99704 78.0369 -11.3069 -0.201091 0.618544 -3.72144 -5.73931 33.2633 -9.61414 -0.254739 3.48553 5.7944 -8.97471 38.2659 0.176263 -0.07068 1.26622 -19.5563 47.1207 31.2748 -1.04683 -0.546484 1.82182 4.64773 -3.9161 12.6947 -0.993472 -0.621916 0.655506 -6.69359 11.6018 -27.2269 -2.64253 0.566363 2.4162 22.6624 6.19458 -14.3658 -1.39394 -0.635138 0.899356 39.7253 7.68608 -8.77031 -0.622395 -0.856016 0.402182 40.5678 7.77382 -9.00294 -3.20814 0.514427 1.52547 6.20244 0.646562 -2.10291 -1.56545 -0.497974 0.68919 51.7974 10.4666 -12.7907 -0.679943 -1.17582 0.444246 14.547 4.13121 -2.59427 -3.47877 0.200518 0.597719 13.4234 -1.35172 -5.3748 -1.28208 -0.53155 0.44672 20.461 6.18714 -4.8431 -0.710288 -0.970167 0.4032 22.0752 6.58733 -5.30763 -3.42483 -0.278904 -0.240415 -11.5768 -9.15203 -6.30979 -1.05787 -0.635999 0.156459 21.1476 6.99534 -4.85964 -0.42815 -0.754232 0.287187 10.7638 3.81198 -2.17124 1.4963 7.5744 -1.52136 5.72948 -1.49057 -15.7307 5.47506 -0.905672 0.485692 -57.1638 -2.71521 -58.5958 11.3069 -0.201091 0.618544 -22.2701 -26.4133 -79.6105 9.61414 -0.254739 3.48553 0.119628 22.9678 -32.437 -0.176263 -0.07068 1.26622 19.3179 32.9398 -31.8731 1.04683 -0.546484 1.82182 -5.63588 -1.15633 -9.90613 0.993472 -0.621916 0.655506 5.15158 2.00191 9.36923 2.64253 0.566363 2.4162 -2.63862 3.01516 9.10817 1.39394 -0.635138 0.899356 -30.0064 6.35825 13.6176 0.622395 -0.856016 0.402182 -30.7118 6.41617 13.963 3.20814 0.514427 1.52547 0.592262 -1.34419 0.682584 1.56545 -0.497974 0.68919 -36.2484 8.13507 17.1423 0.679943 -1.17582 0.444246 -6.14127 2.18131 2.57194 3.47877 0.200518 0.597719 -5.20506 -2.93925 4.26471 1.28208 -0.53155 0.44672 -10.8188 3.97965 5.24426 0.710288 -0.970167 0.4032 -12.099 4.37527 5.90025 3.42483 -0.278904 -0.240415 12.8776 -10.0873 2.80224 1.05787 -0.635999 0.156459 -14.327 5.51315 6.97177 0.42815 -0.754232 0.287187 -6.04619 2.5677 2.8101 -4.17848 -1.02486 0.046356 -28.4774 -18.0737 -6.41528 1.27155 -17.465 -0.237699 0.705334 -0.488938 4.64538 0.529163 -17.3815 -1.19582 14.3712 21.7559 -2.4021 -0.711591 -4.4863 4.0596 1.21682 8.69844 -0.326689 4.17848 -1.02486 0.046356 41.2027 -39.4866 22.4001 -1.27155 -17.465 -0.237699 0.695893 25.4149 -1.91297 -0.529163 -17.3815 -1.19582 -9.00948 15.6003 -15.4262 0.711591 -4.4863 4.0596 0.157389 -1.2766 0.0659656 
